<?xml version="1.0" encoding="UTF-8"?>
<svg id="Layer_2" data-name="Layer 2" xmlns="http://www.w3.org/2000/svg" viewBox="0 0 800 800">
  <defs>
    <style>
      .cls-1 {
        fill: none;
        stroke: #fff;
        stroke-miterlimit: 10;
        stroke-width: 11px;
      }
    </style>
  </defs>
  <polygon class="cls-1" points="6.92 395.21 405.39 793.08 793.08 395.21 405.39 6.92 6.92 395.21"/>
  <path class="cls-1" d="m62.17,341.37s60.3.27,97.98,27.02c41.01,29.12,140.53,281.75,153.94,302.14,15.8,24.01-7.86,30.15-7.86,30.15"/>
  <path class="cls-1" d="m160.15,368.39c41.01,29.12,143.03,280.25,153.94,302.14,12.84,25.76-7.86,30.15-7.86,30.15"/>
  <line class="cls-1" x1="179.15" y1="567.18" x2="333.66" y2="76.82"/>
  <path class="cls-1" d="m208.52,198.76l77.01,30.81s110.16,23.94,137.5,17.55c27.34-6.38,173.91-48.36,173.91-48.36"/>
  <path class="cls-1" d="m535.78,137.52l-112.76,109.6s-67.96,84.57-58.59,140.42c20.13,119.9,121.49,108.89,135.93,228.97,5.47,45.48-34.37,42.28-35.94,41.49-1.56-.8-40.62-16.75-44.53-58.24-3.91-41.49,69.53-94.94,128.12-92.55,58.59,2.39,87.61,49.58,87.61,49.58"/>
  <path class="cls-1" d="m256.41,152.1s29.88,75.04,50.22,169.9c19.53,91.07,12.9,155.69,39.06,230.76,42.78,122.77,104.48,194.37,104.48,194.37"/>
  <path class="cls-1" d="m728.28,330.31s-28.7,62.87-42.77,67.63c-14.06,4.76,5.27,61,21.38,72.97"/>
</svg>